<svg xmlns="http://www.w3.org/2000/svg" xmlns:xlink="http://www.w3.org/1999/xlink" width="500" zoomAndPan="magnify" viewBox="0 0 375 374.999991" height="500" preserveAspectRatio="xMidYMid meet" version="1.0"><defs><clipPath id="3f9046f14f"><path d="M 40 131 L 335 131 L 335 343.726562 L 40 343.726562 Z M 40 131 " clip-rule="nonzero"/></clipPath></defs><path fill="#ffbd59" d="M 40.386719 290.046875 C 36.742188 282.914062 33.917969 274.851562 32.054688 265.734375 C 24.269531 227.574219 50.136719 177.777344 51.089844 165.34375 C 52.039062 152.910156 53.410156 53.332031 70.601562 45.03125 C 99.71875 30.972656 151.996094 113.351562 151.996094 113.351562 C 151.996094 113.351562 168.257812 110.117188 187.496094 110.117188 C 206.730469 110.117188 222.992188 113.351562 222.992188 113.351562 C 222.992188 113.351562 275.269531 30.972656 304.386719 45.03125 C 321.582031 53.332031 322.945312 152.910156 323.902344 165.34375 C 324.851562 177.777344 350.71875 227.574219 342.933594 265.734375 C 341.074219 274.851562 338.25 282.914062 334.597656 290.046875 L 187.496094 319.164062 L 40.386719 290.046875 " fill-opacity="1" fill-rule="nonzero"/><g clip-path="url(#3f9046f14f)"><path fill="#fef5ea" d="M 203.964844 147.441406 C 203.898438 138.515625 196.628906 131.3125 187.699219 131.304688 C 187.632812 131.304688 187.5625 131.304688 187.496094 131.304688 C 187.425781 131.304688 187.359375 131.304688 187.289062 131.304688 C 178.359375 131.3125 171.089844 138.515625 171.023438 147.441406 C 170.636719 197.234375 153.160156 272.007812 40.394531 290.042969 C 65.65625 339.410156 130.382812 344.003906 187.496094 344.003906 C 244.609375 344.003906 309.332031 339.410156 334.597656 290.042969 C 221.832031 272.007812 204.351562 197.234375 203.964844 147.441406 " fill-opacity="1" fill-rule="nonzero"/></g><path fill="#fef5ea" d="M 82.957031 145.949219 C 90.941406 141 107.167969 131.515625 125.667969 123.925781 C 127.824219 123.042969 128.636719 120.421875 127.355469 118.480469 C 119.261719 106.238281 93.542969 68.714844 84.230469 71.457031 C 74.59375 74.292969 76.382812 124.972656 77.332031 143.003906 C 77.476562 145.808594 80.570312 147.429688 82.957031 145.949219 " fill-opacity="1" fill-rule="nonzero"/><path fill="#fef5ea" d="M 292.03125 145.949219 C 284.046875 141 267.820312 131.515625 249.320312 123.925781 C 247.164062 123.042969 246.351562 120.421875 247.632812 118.480469 C 255.726562 106.238281 281.445312 68.714844 290.761719 71.457031 C 300.394531 74.292969 298.609375 124.972656 297.660156 143.003906 C 297.511719 145.808594 294.417969 147.429688 292.03125 145.949219 " fill-opacity="1" fill-rule="nonzero"/><path fill="#4a4b5c" d="M 187.496094 207.1875 C 175.898438 207.1875 165.8125 210.429688 167.945312 217.117188 C 169.671875 222.515625 175.539062 227.941406 182.433594 229.835938 L 182.644531 229.839844 L 182.644531 246.597656 C 182.644531 249.277344 184.816406 251.449219 187.496094 251.449219 C 190.175781 251.449219 192.347656 249.277344 192.347656 246.597656 L 192.347656 229.875 C 199.328125 228.035156 205.300781 222.570312 207.042969 217.117188 C 209.175781 210.429688 199.089844 207.1875 187.496094 207.1875 " fill-opacity="1" fill-rule="nonzero"/><path fill="#f35c76" d="M 216.242188 241.746094 L 158.746094 241.746094 C 156.066406 241.746094 153.894531 243.917969 153.894531 246.597656 C 153.894531 265.125 168.964844 280.199219 187.496094 280.199219 C 206.023438 280.199219 221.09375 265.125 221.09375 246.597656 C 221.09375 243.917969 218.921875 241.746094 216.242188 241.746094 " fill-opacity="1" fill-rule="nonzero"/><path fill="#4a4b5c" d="M 131.671875 195.589844 C 125.992188 195.589844 121.390625 201.378906 121.390625 208.519531 C 121.390625 215.660156 125.992188 221.445312 131.671875 221.445312 C 137.351562 221.445312 141.953125 215.660156 141.953125 208.519531 C 141.953125 201.378906 137.351562 195.589844 131.671875 195.589844 " fill-opacity="1" fill-rule="nonzero"/><path fill="#4a4b5c" d="M 243.320312 195.589844 C 237.636719 195.589844 233.035156 201.378906 233.035156 208.519531 C 233.035156 215.660156 237.636719 221.445312 243.320312 221.445312 C 248.996094 221.445312 253.601562 215.660156 253.601562 208.519531 C 253.601562 201.378906 248.996094 195.589844 243.320312 195.589844 " fill-opacity="1" fill-rule="nonzero"/></svg>